<mxfile host="65bd71144e">
    <diagram id="7DQoTQc25SdK5U-0v4yI" name="Page-1">
        <mxGraphModel dx="998" dy="443" grid="1" gridSize="10" guides="1" tooltips="1" connect="1" arrows="1" fold="1" page="1" pageScale="1" pageWidth="850" pageHeight="1100" math="0" shadow="0">
            <root>
                <mxCell id="0"/>
                <mxCell id="1" parent="0"/>
                <mxCell id="8" style="edgeStyle=none;html=1;exitX=0.5;exitY=1;exitDx=0;exitDy=0;entryX=0.5;entryY=0;entryDx=0;entryDy=0;" edge="1" parent="1" source="2" target="3">
                    <mxGeometry relative="1" as="geometry"/>
                </mxCell>
                <mxCell id="2" value="App" style="whiteSpace=wrap;html=1;" vertex="1" parent="1">
                    <mxGeometry x="300" y="60" width="120" height="60" as="geometry"/>
                </mxCell>
                <mxCell id="7" style="edgeStyle=none;html=1;" edge="1" parent="1" source="3" target="5">
                    <mxGeometry relative="1" as="geometry"/>
                </mxCell>
                <mxCell id="9" style="edgeStyle=orthogonalEdgeStyle;html=1;entryX=0.5;entryY=0;entryDx=0;entryDy=0;" edge="1" parent="1" source="3" target="4">
                    <mxGeometry relative="1" as="geometry"/>
                </mxCell>
                <mxCell id="10" style="edgeStyle=orthogonalEdgeStyle;html=1;exitX=1;exitY=0.5;exitDx=0;exitDy=0;entryX=0.5;entryY=0;entryDx=0;entryDy=0;" edge="1" parent="1" source="3" target="6">
                    <mxGeometry relative="1" as="geometry"/>
                </mxCell>
                <mxCell id="3" value="PokemonPage" style="whiteSpace=wrap;html=1;" vertex="1" parent="1">
                    <mxGeometry x="300" y="160" width="120" height="60" as="geometry"/>
                </mxCell>
                <mxCell id="4" value="PokemonForm" style="whiteSpace=wrap;html=1;" vertex="1" parent="1">
                    <mxGeometry x="100" y="280" width="120" height="60" as="geometry"/>
                </mxCell>
                <mxCell id="5" value="Search" style="whiteSpace=wrap;html=1;" vertex="1" parent="1">
                    <mxGeometry x="300" y="280" width="120" height="60" as="geometry"/>
                </mxCell>
                <mxCell id="12" style="edgeStyle=orthogonalEdgeStyle;html=1;exitX=0.5;exitY=1;exitDx=0;exitDy=0;entryX=0.5;entryY=0;entryDx=0;entryDy=0;" edge="1" parent="1" source="6" target="11">
                    <mxGeometry relative="1" as="geometry"/>
                </mxCell>
                <mxCell id="6" value="PokemonCollection" style="whiteSpace=wrap;html=1;" vertex="1" parent="1">
                    <mxGeometry x="500" y="280" width="120" height="60" as="geometry"/>
                </mxCell>
                <mxCell id="11" value="PokemonCard" style="whiteSpace=wrap;html=1;" vertex="1" parent="1">
                    <mxGeometry x="500" y="380" width="120" height="60" as="geometry"/>
                </mxCell>
            </root>
        </mxGraphModel>
    </diagram>
</mxfile>